<svg width="600" height="415" viewBox="0 0 600 415" fill="none" xmlns="http://www.w3.org/2000/svg">
<g clip-path="url(#clip0)">
<path d="M18.4977 185.83C9.6649 169.58 7.12731 150.597 11.4705 132.638C23.8169 81.7399 58.7576 -7.61278 151.233 5.0264C279.577 22.5944 316.909 26.9864 369.564 10.492C422.219 -6.00238 513.28 -5.95358 541.779 31.3296C559.054 53.9239 617.468 155.281 580.185 190.417C542.902 225.553 598.241 295.044 599.949 331.937C601.657 368.83 548.416 373.612 481.463 374.735C414.509 375.857 25.5737 363.071 25.5737 363.071C25.5737 363.071 -24.2998 277.086 15.2281 246.391C39.6769 227.359 28.6969 204.618 18.4977 185.83Z" fill="white" fill-opacity="0.52"/>
<path d="M86.9152 216.623H108.875C108.875 216.623 115.707 217.599 116.195 222.479C116.683 227.359 116.049 290.847 116.049 290.847L160.115 290.311C160.115 290.311 164.507 291.775 164.507 296.655C164.507 301.535 161.091 303.487 161.091 303.487L94.1376 303.194L86.9152 216.623Z" fill="#BAC6F2"/>
<path d="M86.9152 216.623C86.9152 216.623 80.5712 217.599 80.0832 227.359C79.5952 237.119 80.0832 302.999 80.0832 302.999L146.988 303.487C147.964 303.487 148.891 303.096 149.525 302.364C150.501 301.291 151.819 299.631 151.819 298.119C151.819 295.483 150.843 291.287 145.475 291.287C140.107 291.287 94.7232 290.799 94.7232 290.799L93.7472 222.479C93.7472 222.528 93.7472 217.599 86.9152 216.623Z" fill="#B1C1F2"/>
<path d="M114.926 303.34C114.926 303.34 113.755 308.855 117.659 308.855H124.003C124.491 308.855 126.59 305.927 125.272 303.487C123.954 301.047 114.926 303.34 114.926 303.34Z" fill="#BAC6F2"/>
<path d="M117.659 308.904L118.147 363.999H122.539L122.783 308.562L117.659 308.904Z" fill="#E9EDFA"/>
<path d="M99.6032 363.022L141.571 363.51V367.414L99.6032 366.926V363.022Z" fill="#E9EDFA"/>
<path d="M182.563 367.903L180.611 265.911H190.859L190.371 367.903H182.563Z" fill="white"/>
<path d="M405.579 266.399H416.803L412.899 368.391L405.579 368.879V266.399Z" fill="white"/>
<path d="M172.803 248.343L173.291 264.935L421.683 266.399L421.975 247.855L172.803 248.343Z" fill="#E9EDFA"/>
<path d="M157.675 239.071L436.811 240.047V249.319L158.163 248.831L157.675 239.071Z" fill="#BAC6F2"/>
<path d="M499.128 325.837L499.616 367.317L555.248 366.341V325.837H499.128Z" fill="#E9EDFA"/>
<path d="M543.048 366.536L543.097 325.837H539.534" fill="white"/>
<path d="M513.573 325.74C513.573 325.74 512.255 301.144 523.87 294.166C535.484 287.188 525.529 270.888 527.871 262.251C530.214 253.613 541.145 247.269 541.145 240.633C541.145 233.996 540.169 215.354 552.759 209.742C565.35 204.13 575.354 211.401 571.401 222.381C567.448 233.361 564.422 246.001 560.079 249.953C555.736 253.906 557.444 260.25 558.078 267.912C558.713 275.573 552.759 288.164 549.441 292.848C546.122 297.533 549.441 305.488 548.465 313.784C548.465 313.784 546.659 325.398 544.805 325.788C542.95 326.179 513.573 325.74 513.573 325.74Z" fill="#BAC6F2"/>
<path d="M539.534 326.52C539.534 326.52 540.998 314.808 528.018 311.49C515.037 308.172 526.163 300.412 523.577 296.313C520.99 292.214 508.742 289.189 508.742 286.065C508.742 282.942 509.864 274.061 495.761 271.377C481.658 268.693 470.531 272.157 474.972 277.379C479.413 282.601 482.78 288.603 487.562 290.506C492.345 292.409 490.539 295.386 489.807 299.046C489.075 302.706 495.761 308.708 499.47 310.904C503.178 313.1 499.47 316.907 500.592 320.86C500.592 320.86 502.642 326.374 504.642 326.569C506.643 326.764 539.534 326.52 539.534 326.52Z" fill="#BAC6F2"/>
<path d="M528.701 326.471C528.701 326.471 527.676 314.223 536.704 310.758C545.732 307.293 538.022 299.192 539.778 294.898C541.535 290.604 550.124 287.48 550.124 284.162C550.124 280.844 549.343 271.62 559.152 268.79C568.961 265.96 576.72 269.62 573.597 275.085C570.474 280.551 568.18 286.797 564.813 288.798C561.446 290.799 562.763 293.922 563.251 297.728C563.739 301.535 559.103 307.83 556.517 310.124C553.93 312.417 556.517 316.419 555.736 320.518C555.736 320.518 554.321 326.276 552.906 326.471C551.49 326.667 528.701 326.471 528.701 326.471Z" fill="#BAC6F2"/>
<path d="M215.649 90.6213L215.991 184.22L476.339 183.829V91.3533L215.649 90.6213Z" fill="white"/>
<path d="M262.204 119.901V131.418L368.832 130.93V119.901H262.204Z" fill="#BAC6F2"/>
<path d="M262.204 151.963V163.479L368.832 162.991V151.963H262.204Z" fill="#BAC6F2"/>
<path d="M244.197 135.42C248.617 135.42 252.2 131.837 252.2 127.417C252.2 122.996 248.617 119.413 244.197 119.413C239.777 119.413 236.194 122.996 236.194 127.417C236.194 131.837 239.777 135.42 244.197 135.42Z" fill="#BAC6F2"/>
<path d="M244.197 165.334C248.617 165.334 252.2 161.751 252.2 157.331C252.2 152.911 248.617 149.328 244.197 149.328C239.777 149.328 236.194 152.911 236.194 157.331C236.194 161.751 239.777 165.334 244.197 165.334Z" fill="#BAC6F2"/>
<path d="M461.259 132.492H397.966V163.382H461.259V132.492Z" fill="#E9EDFA"/>
<path d="M396.941 161.918C396.941 161.918 401.87 151.133 406.555 152.305C411.239 153.476 412.411 158.404 415.924 156.306C419.438 154.208 421.731 145.717 425.147 144.35C430.027 142.447 431.638 144.545 438.226 148.303C444.814 152.061 447.595 151.231 450.279 148.449C452.768 145.912 457.355 139.031 462.431 135.957" stroke="#BAC6F2" stroke-width="0.679273" stroke-linecap="round" stroke-linejoin="round"/>
<path d="M195.349 91.8416H101.165V181.389H195.349V91.8416Z" fill="white"/>
<path d="M147.037 170.409C160.485 170.409 171.388 159.507 171.388 146.058C171.388 132.609 160.485 121.707 147.037 121.707C133.588 121.707 122.686 132.609 122.686 146.058C122.686 159.507 133.588 170.409 147.037 170.409Z" stroke="#BAC6F2" stroke-width="1.35855" stroke-linecap="round" stroke-linejoin="round"/>
<path d="M131.323 99.6006H107.362V105.261H131.323V99.6006Z" fill="#BAC6F2"/>
<path d="M131.323 108.482H107.362V114.143H131.323V108.482Z" fill="#BAC6F2"/>
<path d="M177.39 224.528H251.712C251.712 224.528 254.494 224.382 254.494 221.161V214.768H174.462V222.527C174.853 223.747 176.024 224.577 177.39 224.528Z" fill="#BAC5F4"/>
<path d="M174.462 166.456L174.413 217.208L254.494 216.476V164.992C254.494 164.992 254.982 162.064 251.859 162.064H177.488C177.488 162.064 174.121 162.064 174.462 166.456Z" fill="#BAC5F4"/>
<path d="M208.134 238.143V224.04L219.846 224.528V236.923L208.134 238.143Z" fill="#BAC5F4"/>
<path d="M189.541 236.728H238.195L238.244 239.168H189.541V236.728Z" fill="#BAC5F4"/>
<path d="M213.746 218.233C215.064 218.233 216.089 219.258 216.089 220.576C216.089 221.893 215.064 222.918 213.746 222.918C212.429 222.918 211.404 221.893 211.404 220.576C211.404 219.258 212.477 218.233 213.746 218.233Z" fill="white"/>
<path d="M252.054 164.504H176.902V213.792H252.054V164.504Z" fill="white" fill-opacity="0.52"/>
<path d="M180.66 167.042C181.294 167.042 181.831 167.579 181.831 168.213C181.831 168.848 181.294 169.384 180.66 169.384C180.025 169.384 179.489 168.848 179.489 168.213C179.489 167.579 180.025 167.042 180.66 167.042Z" fill="#FA5F5D"/>
<path d="M184.661 167.042C185.296 167.042 185.833 167.579 185.833 168.213C185.833 168.848 185.296 169.384 184.661 169.384C184.027 169.384 183.49 168.848 183.49 168.213C183.49 167.579 184.027 167.042 184.661 167.042Z" fill="#FDBC4E"/>
<path d="M188.858 167.042C189.493 167.042 190.029 167.579 190.029 168.213C190.029 168.848 189.493 169.384 188.858 169.384C188.224 169.384 187.687 168.848 187.687 168.213C187.687 167.579 188.224 167.042 188.858 167.042Z" fill="#37CD58"/>
<path d="M205.206 175.631C205.157 176.265 204.621 176.753 203.986 176.704H189.59C188.858 176.704 188.126 176.216 188.126 175.631V173.435C188.126 172.849 188.809 172.312 189.59 172.312H203.937C204.572 172.264 205.157 172.752 205.206 173.386V173.435V175.631Z" fill="url(#paint0_linear)"/>
<path d="M239.854 190.173C239.805 190.856 239.22 191.393 238.537 191.344H189.59C188.858 191.344 188.126 190.808 188.126 190.173V179.34C188.126 178.705 188.858 178.168 189.59 178.168H238.537C239.22 178.12 239.805 178.656 239.854 179.34V190.173Z" fill="url(#paint1_linear)"/>
<path d="M204.23 199.445C204.23 200.08 203.693 200.616 203.059 200.616H189.59C188.809 200.616 188.126 200.08 188.126 199.445V193.492C188.126 192.857 188.858 192.32 189.59 192.32H202.961C203.596 192.272 204.181 192.76 204.23 193.443V193.492V199.445Z" fill="url(#paint2_linear)"/>
<path d="M221.798 199.445C221.798 200.08 221.261 200.616 220.627 200.616H207.158C206.377 200.616 205.694 200.08 205.694 199.445V193.492C205.694 192.857 206.426 192.32 207.158 192.32H220.529C221.164 192.272 221.749 192.76 221.798 193.443V193.492V199.445Z" fill="url(#paint3_linear)"/>
<path d="M239.854 199.445C239.805 200.128 239.22 200.665 238.537 200.616H225.165C224.433 200.665 223.848 200.128 223.75 199.445V193.492C223.799 192.76 224.433 192.272 225.165 192.32H238.537C239.22 192.272 239.854 192.808 239.903 193.492L239.854 199.445Z" fill="url(#paint4_linear)"/>
<path d="M221.798 202.813C221.701 203.057 221.505 203.203 221.261 203.252C221.213 203.252 221.213 203.252 221.164 203.057H206.426C206.133 203.252 205.694 203.057 205.694 202.813V202.617C205.694 202.373 206.133 202.129 206.426 202.081H221.164C221.408 202.129 221.554 202.325 221.603 202.52C221.603 202.569 221.603 202.569 221.749 202.617L221.798 202.813Z" fill="#E9EDFB"/>
<path d="M221.798 204.715C221.701 204.959 221.505 205.155 221.261 205.203C221.261 205.203 221.213 205.203 221.213 205.008H206.426C206.133 205.203 205.694 205.008 205.694 204.715V204.52C205.694 204.276 206.133 204.081 206.426 204.032H221.164C221.408 204.081 221.652 204.276 221.749 204.52L221.798 204.715Z" fill="#E9EDFB"/>
<path d="M221.798 206.668C221.701 206.96 221.457 207.156 221.213 207.204C221.213 207.107 221.213 207.058 221.213 206.96H206.426C206.182 207.107 205.889 207.058 205.743 206.814C205.694 206.765 205.694 206.716 205.694 206.668V206.472C205.694 206.228 206.133 206.082 206.426 205.984H221.164C221.408 206.033 221.652 206.228 221.749 206.472L221.798 206.668Z" fill="#E9EDFB"/>
<path d="M221.798 208.571C221.652 208.863 221.457 209.156 221.213 209.4H206.426C206.133 209.156 205.694 208.863 205.694 208.571V208.375C205.694 208.131 206.133 207.839 206.426 207.936H221.164C221.359 207.887 221.554 208.034 221.603 208.229C221.603 208.278 221.603 208.327 221.603 208.375C221.603 208.375 221.603 208.375 221.749 208.424L221.798 208.571Z" fill="#E9EDFB"/>
<path d="M213.6 210.523C213.6 210.767 213.453 210.864 213.161 210.864H206.377C206.085 210.864 205.694 210.767 205.694 210.523V210.328C205.694 210.084 206.085 209.888 206.377 209.888H213.161C213.405 209.888 213.6 210.084 213.6 210.328V210.523Z" fill="#E9EDFB"/>
<path d="M239.854 202.813C239.561 203.057 239.61 203.252 239.317 203.057H224.58C224.336 203.252 224.092 203.105 224.092 202.861C224.092 202.861 224.092 202.861 224.238 202.813V202.617C224.092 202.373 224.287 202.129 224.58 202.081H239.317C239.61 202.178 239.561 202.373 239.854 202.617V202.813Z" fill="#E9EDFB"/>
<path d="M239.854 204.715C239.561 204.959 239.61 205.203 239.317 205.008H224.58C224.287 205.203 224.092 205.008 224.238 204.715V204.52C224.092 204.276 224.287 204.081 224.58 204.032H239.317C239.61 204.13 239.561 204.276 239.854 204.52V204.715Z" fill="#E9EDFB"/>
<path d="M239.854 206.668C239.561 206.912 239.61 207.204 239.317 206.96H224.58C224.287 207.156 224.092 206.96 224.238 206.668V206.472C224.092 206.228 224.287 206.082 224.58 205.984H239.317C239.61 206.082 239.561 206.228 239.854 206.472V206.668Z" fill="#E9EDFB"/>
<path d="M239.854 208.571C239.561 208.815 239.61 209.156 239.317 209.4H224.58C224.287 209.107 224.092 208.863 224.238 208.571V208.375C224.141 208.278 224.141 208.083 224.238 207.985C224.336 207.936 224.433 207.887 224.531 207.936H239.317C239.61 207.839 239.561 208.131 239.854 208.375V208.571V208.571Z" fill="#E9EDFB"/>
<path d="M231.753 210.523C231.753 210.767 231.753 210.864 231.509 210.864H224.677C224.385 210.864 224.238 210.767 224.238 210.523V210.328C224.238 210.084 224.433 209.888 224.677 209.888H231.461C231.753 209.888 231.705 210.084 231.705 210.328L231.753 210.523Z" fill="#E9EDFB"/>
<path d="M203.742 202.813C203.937 203.057 203.84 203.252 203.547 203.057H188.761C188.565 203.203 188.321 203.154 188.224 203.008C188.175 202.959 188.175 202.91 188.126 202.813V202.617C188.224 202.325 188.468 202.129 188.761 202.081H203.498C203.791 202.178 203.889 202.373 203.693 202.617L203.742 202.813Z" fill="#E9EDFB"/>
<path d="M203.742 204.715C203.937 204.959 203.84 205.203 203.547 205.008H188.761C188.468 205.252 188.224 205.008 188.126 204.715V204.52C188.175 204.276 188.468 204.081 188.761 204.032H203.498C203.791 204.13 203.889 204.276 203.693 204.52L203.742 204.715Z" fill="#E9EDFB"/>
<path d="M203.742 206.668C203.937 206.912 203.84 207.204 203.547 206.96H188.761C188.468 207.204 188.224 206.96 188.126 206.668V206.472C188.175 206.228 188.468 206.082 188.761 205.984H203.498C203.791 206.082 203.889 206.228 203.693 206.472L203.742 206.668Z" fill="#E9EDFB"/>
<path d="M199.35 207.936H203.547C203.84 207.839 203.937 208.131 203.742 208.375V208.571C203.937 208.815 203.84 209.156 203.547 209.4H188.761C188.468 209.205 188.273 208.912 188.126 208.571V208.375C188.175 208.083 188.468 207.887 188.761 207.936H199.35Z" fill="#E9EDFB"/>
<path d="M196.422 210.523C196.422 210.767 196.276 210.864 195.983 210.864H188.663C188.37 210.864 188.126 210.767 188.126 210.523V210.328C188.175 210.084 188.419 209.888 188.663 209.888H195.983C196.227 209.888 196.422 210.084 196.422 210.279C196.422 210.279 196.422 210.279 196.422 210.328V210.523Z" fill="#E9EDFB"/>
<path d="M40.6529 366.243C40.6529 366.243 44.9472 342.917 22.3041 330.424C-0.290282 317.931 -1.36388 318.078 -5.85347 316.663C-8.43987 315.784 -11.0751 317.639 -8.09827 321.347C-5.12147 325.105 -6.82947 326.032 -0.87588 327.691C5.07771 329.351 5.95611 336.573 8.9329 338.379C11.9097 340.184 14.4961 340.672 23.5729 344.576C31.8201 348.139 38.8473 358.191 38.8473 361.705C38.8473 365.219 46.8992 366.439 46.8992 366.439L40.6529 366.243Z" fill="url(#paint5_linear)"/>
<path d="M39.8721 362.974C39.8721 362.974 45.6304 341.502 25.8177 329.887C6.00491 318.273 -0.875876 318.419 -4.82867 317.004C-7.07347 316.175 -0.924676 319.005 1.66172 322.421C4.24811 325.886 3.61372 325.105 8.24971 327.643C13.6177 330.619 15.8625 333.499 19.0345 334.084C23.6217 334.963 22.2553 339.745 30.2097 343.307C37.3833 346.577 38.3105 355.312 38.3105 358.582C38.3105 361.9 45.3376 362.974 45.3376 362.974H39.8721Z" fill="url(#paint6_linear)"/>
<path d="M59.7824 359.802L62.0272 357.655C63.1008 356.679 64.4184 355.947 65.8336 355.556C72.812 353.702 94.8208 346.821 103.946 330.18C104.044 330.034 103.946 329.839 103.8 329.79H103.751C103.702 329.79 103.654 329.741 103.654 329.741C100.628 329.497 84.9632 329.253 64.028 347.114C63.6376 347.407 63.296 347.797 63.0032 348.139C62.4664 348.871 61.588 350.139 61.1976 350.774C60.6608 351.75 61.7344 353.36 60.2704 354.775C58.8064 356.191 55.6344 359.753 55.6344 359.753L58.2208 361.656L59.7824 359.802Z" fill="url(#paint7_linear)"/>
<path d="M47.8752 358.435C47.8752 358.435 53.8776 304.707 37.4809 287.822C22.4017 272.303 22.1577 286.553 22.2065 288.993C22.2065 289.237 22.3041 289.383 22.3529 289.579C25.9153 296.215 27.1353 303.877 25.8665 311.295C24.3049 319.054 35.4313 318.029 36.4073 325.691C37.3833 333.352 41.2384 345.162 40.848 350.579C40.4576 355.995 40.4089 361.266 40.4089 361.266L46.46 361.461L47.8752 358.435Z" fill="url(#paint8_linear)"/>
<path d="M47.8264 358.582C47.8752 358.484 47.924 358.338 47.924 358.191C48.3144 354.678 53.3408 304.072 37.5296 287.773C22.5481 272.304 22.3041 286.309 22.4017 288.847C22.4505 289.14 22.5969 289.432 22.7433 289.676C23.8657 291.287 28.7945 298.314 33.1865 297.533C45.3376 295.386 34.6017 309.977 41.1896 317.785C46.46 323.934 44.7032 345.211 44.3128 350.676C44.0688 353.751 43.532 356.776 42.7512 359.753C42.6048 360.534 43.1416 361.266 43.8736 361.412C43.9224 361.412 43.9712 361.412 43.9712 361.412C44.0688 361.412 44.1664 361.461 44.264 361.461H45.3864C46.0696 361.51 46.6552 361.168 46.948 360.583L47.8264 358.582Z" fill="url(#paint9_linear)"/>
<path d="M53.7312 361.705C53.7312 361.705 54.8048 346.821 63.4912 337.744C65.9312 335.255 69.0056 333.547 72.3728 332.767C74.9592 332.181 79.2048 330.083 82.9136 323.104C82.9136 323.104 89.892 313.198 96.9192 310.221C103.898 307.195 96.9192 306.854 96.9192 306.854C96.9192 306.854 76.9112 310.66 64.0768 322.372C63.2472 323.104 62.4176 323.787 61.4904 324.373C58.172 326.667 48.9488 335.207 49.3392 360.241L53.7312 361.705Z" fill="url(#paint10_linear)"/>
<path d="M71.104 360.534C71.104 360.534 71.3968 358.728 69.0056 358.777C66.9072 358.875 31.5761 358.582 31.5761 358.582C31.5761 358.582 29.9169 358.582 30.0145 359.851C30.1121 361.119 35.4801 390.546 35.9681 391.131C36.2121 391.522 36.5537 391.815 36.9929 391.912C37.6761 392.107 62.4664 391.961 62.4664 391.961C63.052 391.863 63.4912 391.424 63.54 390.839C63.54 390.839 71.1528 360.875 71.104 360.534Z" fill="url(#paint11_linear)"/>
<path d="M399.088 364.682L390.695 366.585C390.695 366.585 388.645 373.222 387.718 376.784C387.669 376.979 387.474 377.614 387.327 378.004C387.181 378.638 387.132 379.224 387.132 379.858C387.327 383.03 388.547 385.763 391.329 387.178C394.452 388.789 396.892 390.253 400.211 387.178C403.529 384.104 404.115 382.201 402.699 376.93C401.235 371.66 399.088 364.682 399.088 364.682Z" fill="#4B44BE"/>
<path d="M447.937 375.71C442.276 373.905 439.836 366.926 439.836 366.926L428.417 366.341C428.417 366.341 428.173 373.466 427.831 377.37C427.441 382.542 428.417 384.836 431.833 384.494C436.42 384.104 455.159 385.763 458.087 383.909C462.04 381.566 453.256 377.37 447.937 375.71Z" fill="#4B44BE"/>
<path d="M381.471 203.691C381.471 203.691 377.226 209.547 375.859 225.358C374.493 241.169 377.519 271.181 378.934 276.988C380.349 282.796 385.961 336.963 387.327 340.965C388.743 344.967 390.646 366.536 390.646 366.536L399.674 366.78C399.674 366.78 402.358 338.623 402.358 331.156C402.358 323.69 406.067 253.174 405.823 248.001C405.579 242.828 406.799 244.488 406.799 244.488C406.799 244.488 414.753 269.766 417.144 274.012C419.487 278.208 423.732 286.456 423.732 286.456C423.732 286.456 424.708 312.905 425.831 328.179C427.002 343.454 428.173 367.561 428.173 367.561L440.324 367.317C440.324 367.317 443.106 327.057 443.106 318.566C443.106 310.075 445.643 289.774 445.643 287.383C445.643 284.992 437.689 243.804 437.689 243.804L432.126 203.642L381.471 203.691Z" fill="url(#paint12_linear)"/>
<path d="M386.449 93.0128C386.449 93.0128 391.719 72.4192 395.867 70.9064C412.167 64.8552 413.826 54.6561 420.804 83.8384C427.783 113.021 447.01 146.888 455.208 156.892C466.481 170.605 465.554 179.437 461.503 180.267C457.453 181.097 436.957 186.513 435.395 187.001C433.785 187.489 438.714 201.739 431.833 199.738C428.027 198.665 427.685 181.78 432.467 180.999C434.419 180.657 457.209 176.168 457.063 174.801C456.916 173.435 439.348 149.035 439.348 149.035L428.027 143.667L399.918 128.539L386.449 121.854L385.034 99.5032L384.058 95.16L386.449 93.0128Z" fill="url(#paint13_linear)"/>
<path d="M382.838 120.585C382.838 120.585 382.984 122.195 379.129 127.661C376.835 130.979 382.643 128.637 377.714 136.982C369.955 150.158 365.611 164.31 365.026 173.094C364.684 178.51 369.418 177.437 371.419 179.145C372.492 180.121 376.055 178.51 376.884 177.29L378.495 174.509C378.934 173.874 383.277 167.482 383.423 166.75C383.814 164.261 386.205 153.769 387.035 150.011C387.718 146.839 393.33 139.568 397.868 124.586C399.186 119.999 397.868 118.096 398.21 115.998C399.186 109.166 389.621 109.312 388.791 111.654C388.596 112.24 381.325 140.886 380.935 144.741C380.788 146.01 383.375 157.38 385.327 160.503C387.279 163.626 389.523 165.871 389.523 168.604C389.523 171.337 388.255 182.561 386.205 187.538C384.155 192.516 381.227 203.984 381.227 203.984L432.126 203.74C432.126 203.74 430.271 181.878 431.052 174.314C431.052 174.314 433.199 149.67 434.517 147.23C435.786 144.79 449.45 166.994 452.866 172.654C454.281 174.997 434.907 179.145 433.297 180.999C431.687 182.854 434.956 188.026 434.956 188.026C434.956 188.026 468.774 183.878 468.628 178.706C468.482 173.533 449.303 133.761 442.52 126.246C435.737 118.73 433.931 118.974 428.173 121.024C422.415 123.074 419.682 124.928 411.971 126.197C406.359 127.173 400.552 126.148 395.575 123.269C392.842 121.414 382.838 120.585 382.838 120.585Z" fill="url(#paint14_linear)"/>
<path d="M375.859 140.251C376.445 139.421 377.031 138.592 377.47 137.713C377.909 136.884 378.251 136.396 378.446 136.005C380.935 131.809 386.595 122.195 387.474 117.95C387.962 116.29 388.352 114.582 388.645 112.874C388.84 111.703 388.889 110.532 388.791 109.361C388.45 107.214 384.058 98.1367 384.692 97.3072C384.741 97.1608 385.327 94.6232 386.156 95.4528C387.132 96.4288 393.379 99.8447 393.818 100.479C395.038 102.626 395.965 104.92 396.697 107.311C397.136 108.726 397.527 112.777 397.673 113.118C398.991 116.486 397.478 119.023 397.624 120.829C397.673 121.463 397.673 124.001 398.015 124.294C398.893 124.928 400.113 125.514 400.65 124.879C401.138 124.245 400.991 122.439 401.04 120.682C401.382 111.459 399.625 102.968 397.478 98.5271C395.331 94.0864 390.255 85.3512 393.72 80.3248C397.185 75.2984 404.359 71.3456 404.7 70.0768C405.042 68.808 405.188 74.908 409.043 77.104C412.85 79.2512 418.218 85.0584 418.218 86.2784C418.218 87.4984 419.487 91.6952 415.875 98.9175C412.264 106.14 409.385 115.363 414.411 122.195C419.438 129.027 432.126 138.641 433.004 140.788C433.883 142.935 433.004 152.597 432.663 158.014C432.321 163.431 442.911 148.791 442.52 141.715C442.13 134.639 443.399 131.565 436.225 120.829C429.003 110.044 424.318 91.4512 424.123 86.9128C423.927 82.3744 421.829 69.9792 417.486 66.3192C413.143 62.708 412.752 59.292 400.747 60.512C400.747 60.512 390.597 60.9024 387.767 70.76C384.936 80.6176 384.448 94.5256 384.302 96.7216C384.155 99.0151 385.18 113.021 383.911 117.413C382.643 121.805 376.689 131.174 375.567 134.981" fill="url(#paint15_linear)"/>
<path opacity="0.07" d="M395.184 366.585C395.233 366.78 395.233 366.975 395.233 367.171C395.282 368.586 395.233 372.099 393.72 374.295C391.817 377.223 396.355 383.665 396.355 385.275C396.355 386.886 394.257 388.35 392.793 387.91C391.329 387.471 385.229 384.006 387.62 376.638C388.596 373.661 389.133 371.026 389.719 369.367C390.06 368.537 390.304 367.707 390.548 366.878C390.597 366.487 390.597 366.097 390.597 365.707C390.548 365.219 390.548 364.633 390.451 364.047C390.109 361.168 378.007 271.767 377.567 268.302C377.177 265.227 375.42 246.293 375.615 235.216C375.469 234.24 375.469 233.312 375.567 232.434C375.567 232.19 375.713 231.116 375.615 230.628C375.664 229.604 375.762 228.579 375.859 227.554C375.664 226.724 375.811 226.724 375.859 225.407C375.908 224.089 375.859 223.308 376.006 222.479C377.226 214.964 379.959 206.424 381.276 203.984L381.667 202.666C381.667 202.666 383.911 192.613 384.936 190.515C385.815 188.612 389.719 169.677 389.377 167.579C389.035 165.48 384.985 160.112 384.985 160.112L385.571 157.233C385.571 157.233 386.839 153.036 388.108 149.474C389.133 146.741 392.354 139.47 393.72 136.347C395.867 131.272 396.892 129.271 397.331 125.904C397.673 123.366 397.917 124.44 399.039 124.928C400.699 125.562 400.747 124.733 400.845 123.122C400.894 118.145 400.699 113.265 400.259 108.287C399.771 104.383 395.721 98.1365 394.013 94.3302C392.988 92.3782 392.207 90.231 391.573 88.0838C390.792 84.7654 390.89 81.0566 394.013 77.9334C396.746 75.2006 404.895 69.5398 404.895 69.5398C404.895 69.5398 401.138 77.2014 402.651 79.7878C405.139 83.7894 403.919 88.9134 403.919 90.6702C403.919 92.427 401.967 96.9165 403.139 101.455C405.237 109.409 401.626 113.948 402.943 119.365C403.773 122.683 404.261 123.757 403.431 126.685C402.602 129.612 394.403 151.865 398.893 164.797C403.431 177.729 405.53 186.904 398.259 194.663C390.987 202.422 397.673 209.4 397.819 214.866C398.161 228.384 391.573 226.92 391.183 235.313C390.792 243.707 392.647 249.758 392.793 254.199C393.135 268.643 392.939 271.523 392.159 277.183C391.378 282.844 387.523 293.629 391.817 314.808C396.16 335.987 395.526 337.891 395.087 349.847C394.745 361.9 395.184 366.585 395.184 366.585Z" fill="black"/>
<path d="M382.984 88.7672C384.692 87.5472 386.547 86.4736 388.45 85.4976C390.792 84.5216 391.915 88.0352 392.549 89.6456C393.183 91.256 396.355 101.065 396.502 101.797C396.551 102.138 396.063 102.041 394.403 103.31C394.159 103.505 393.72 103.358 393.183 102.236C392.939 101.602 392.11 100.089 391.134 99.5519C390.743 99.3567 384.741 97.2584 384.692 97.844C384.643 98.4296 386.107 102.041 386.839 104.139C386.888 104.334 387.913 106.433 387.718 106.823C387.669 106.872 387.767 106.823 387.767 106.823C387.767 106.823 386.693 107.214 386.351 106.823C386.01 106.433 382.984 96.5752 381.813 92.8176C381.569 91.988 380.983 90.8656 381.569 90.3288L382.984 88.7672Z" fill="#EFEFEF"/>
<path d="M194.08 396.158C190.761 395.962 187.053 392.205 187.053 392.205L179.684 391.229C179.684 391.229 177.39 398.207 179.879 399.622C182.319 401.086 197.154 401.477 197.154 399.622C197.105 397.768 196.861 396.255 194.08 396.158Z" fill="#4B44BE"/>
<path d="M143.865 395.914C140.985 394.303 139.375 389.179 139.375 389.179L133.177 385.031C133.177 385.031 127.956 390.253 129.566 392.595C131.177 394.938 144.157 402.062 144.987 400.403C145.817 398.744 146.305 397.329 143.865 395.914Z" fill="#4B44BE"/>
<path d="M154.893 197.835C154.893 197.835 161.969 182.853 173.389 190.613C184.808 198.421 185.003 208.669 181.587 213.597C177.585 219.405 178.61 224.138 179.293 225.993C179.489 226.529 179.879 227.017 180.367 227.261L199.643 238.046L207.305 245.317L225.8 222.04C225.8 222.04 228.777 217.843 234.193 217.843C239.61 217.843 242.001 219.649 242.001 219.649C242.001 219.649 242.587 222.04 235.999 223.845L229.411 225.651L212.624 255.663C212.624 255.663 207.646 257.761 202.327 253.321C197.642 249.417 193.25 245.22 189.249 240.681L188.663 310.27L190.713 330.18L189.883 341.941C189.932 343.015 189.444 354.678 189.395 355.752L188.077 373.759L186.467 392.01L179.733 391.18L178.61 378.004L175.975 330.571L175.682 287.676L163.97 314.467L164.409 330.132L154.796 359.9C154.357 361.168 153.917 362.34 153.283 363.511L139.57 389.424L133.08 385.422L140.449 366.683C141.229 365.072 145.085 352.628 145.524 350.92L150.453 327.643L171.827 246.245L161.091 251.71C161.091 251.71 153.234 269.278 152.014 271.084C150.794 272.889 136.496 290.994 135.861 293.385C135.227 295.777 132.982 300.412 130.005 301.584C127.029 302.755 121.612 304.756 129.42 293.385C135.52 284.455 139.424 277.769 140.888 275.378C141.229 274.695 141.62 274.061 141.913 273.329L150.013 252.93L162.897 232.239L164.653 230.97L168.313 228.091C168.801 227.749 169.045 227.115 168.997 226.529C168.557 223.748 167.142 221.259 164.897 219.551C160.652 216.184 152.112 209.84 154.893 197.835Z" fill="url(#paint16_linear)"/>
<path d="M157.431 288.651L150.209 327.643L164.605 330.668L173.584 298.265L175.78 330.571H190.81L192.177 280.258L157.431 288.651Z" fill="url(#paint17_linear)"/>
<path d="M149.672 253.32C149.672 253.32 154.308 236.631 163.58 231.117C164.556 230.58 166.215 228.823 166.361 229.848C166.557 231.653 167.581 235.85 171.778 235.85C178.366 235.85 180.318 230.336 180.318 227.31C180.318 226.432 184.027 226.578 187.297 227.115C190.371 227.603 193.397 228.92 195.446 231.214L201.546 239.803L195.837 246.098L194.031 247.074L192.225 280.307C192.225 280.307 178.952 286.407 167.045 288.115C163.873 288.456 160.603 288.7 157.431 288.7L159.822 254.492L149.672 253.32Z" fill="url(#paint18_linear)"/>
<path d="M159.041 208.376C161.14 205.838 163.433 203.496 165.873 201.349C169.338 198.469 171.144 196.81 171.144 196.81C171.144 196.81 175.877 200.275 177.781 200.958C179.684 201.641 182.563 202.813 182.563 202.813C182.563 202.813 184.173 197.396 180.172 196.761C176.17 196.078 164.117 191.735 161.579 193.638C159.041 195.541 154.845 201.056 154.21 203.691C153.576 206.326 155.089 209.742 156.065 210.425C156.601 210.767 155.089 207.741 155.967 207.107C156.553 206.57 159.041 208.376 159.041 208.376Z" fill="url(#paint19_linear)"/>
<path d="M154.21 203.691L191.835 194.858C191.835 194.858 192.567 193.101 191.152 193.053C189.737 193.004 181.197 195.883 181.197 195.883C181.197 195.883 177.488 184.952 165.337 185.196C165.337 185.196 165.825 184.122 165.141 184.073C164.458 184.025 161.384 184.854 161.14 185.098C160.896 185.342 161.628 186.074 161.237 186.367C160.847 186.66 150.404 191.735 154.21 203.691Z" fill="#4B44BE"/>
<path opacity="0.07" d="M180.513 214.866C180.513 214.866 178.073 217.941 176.073 218.575C174.072 219.209 175.243 219.307 176.073 221.747C176.512 223.065 177.097 224.285 177.878 225.407C177.878 225.407 178.952 215.793 180.513 214.866Z" fill="black"/>
<path opacity="0.07" d="M161.286 186.416C161.286 186.416 162.945 188.026 161.872 192.272C160.798 196.517 160.408 197.835 161.335 199.494C162.262 201.153 161.579 202.032 161.579 202.032L154.21 203.789C154.308 203.691 149.672 192.906 161.286 186.416Z" fill="black"/>
<path opacity="0.07" d="M159.822 254.443C159.822 254.443 162.165 251.076 162.409 248.001C162.653 244.927 161.335 254.052 162.848 259.518C164.361 264.984 162.604 269.717 165.678 271.62C168.753 273.524 166.361 280.063 166.996 282.893C167.435 284.552 168.606 285.968 170.217 286.602C170.217 286.602 169.777 288.115 164.556 288.359C159.334 288.603 157.431 288.603 157.431 288.603L159.822 254.443Z" fill="black"/>
<path d="M288.849 215.11L283.969 242.682C283.969 242.682 290.264 241.559 293.241 242.682L288.849 215.11Z" fill="url(#paint20_linear)"/>
<path d="M288.849 215.11L293.241 242.682C293.241 242.682 311.932 240.339 326.23 242.487L321.155 215.207L288.849 215.11Z" fill="#FCFCFC"/>
<path d="M307.442 229.116L302.904 229.213L302.269 225.602L306.71 225.553L307.442 229.116Z" fill="#58CAEA"/>
<path d="M314.616 228.921L310.077 229.018L309.443 225.358H313.835L314.616 228.921Z" fill="#58CAEA"/>
<path d="M321.35 228.921L316.86 229.018L316.177 225.407L320.618 225.358L321.35 228.921Z" fill="#58CAEA"/>
<path d="M322.277 233.849L317.739 233.947L317.104 230.287H321.496L322.277 233.849Z" fill="#58CAEA"/>
<path d="M308.418 233.8L303.928 233.898L303.245 230.238H307.686L308.418 233.8Z" fill="#58CAEA"/>
<path d="M301.44 233.996L296.901 234.093L296.267 230.482L300.708 230.433L301.44 233.996Z" fill="#58CAEA"/>
<path d="M302.562 239.071L298.024 239.168L297.389 235.557L301.83 235.508L302.562 239.071Z" fill="#58CAEA"/>
<path d="M309.492 238.973L304.953 239.071L304.319 235.46L308.711 235.411L309.492 238.973Z" fill="#58CAEA"/>
<path d="M316.616 238.973L312.127 239.071L311.444 235.411H315.884L316.616 238.973Z" fill="#58CAEA"/>
<path d="M315.494 233.8L311.004 233.898L310.321 230.238H314.762L315.494 233.8Z" fill="url(#paint21_linear)"/>
<path d="M288.849 215.11L290.118 222.967L322.619 222.869L321.155 215.207L288.849 215.11Z" fill="url(#paint22_linear)"/>
<path d="M297.731 213.353L300.22 213.304L300.464 216.769H298.024L297.731 213.353Z" fill="url(#paint23_linear)"/>
<path d="M313.152 213.499L315.299 213.451L315.543 216.671H313.444L313.152 213.499Z" fill="url(#paint24_linear)"/>
</g>
<defs>
<linearGradient id="paint0_linear" x1="188.114" y1="174.5" x2="205.194" y2="174.5" gradientUnits="userSpaceOnUse">
<stop stop-color="#F71D69"/>
<stop offset="1" stop-color="#F8C648"/>
</linearGradient>
<linearGradient id="paint1_linear" x1="188.114" y1="184.748" x2="239.842" y2="184.748" gradientUnits="userSpaceOnUse">
<stop stop-color="#E5A4ED"/>
<stop offset="1" stop-color="#7A5BF5"/>
</linearGradient>
<linearGradient id="paint2_linear" x1="188.114" y1="196.458" x2="204.218" y2="196.458" gradientUnits="userSpaceOnUse">
<stop stop-color="#E5A4ED"/>
<stop offset="1" stop-color="#7A5BF5"/>
</linearGradient>
<linearGradient id="paint3_linear" x1="205.682" y1="196.458" x2="221.786" y2="196.458" gradientUnits="userSpaceOnUse">
<stop stop-color="#E5A4ED"/>
<stop offset="1" stop-color="#7A5BF5"/>
</linearGradient>
<linearGradient id="paint4_linear" x1="223.738" y1="196.46" x2="239.842" y2="196.46" gradientUnits="userSpaceOnUse">
<stop stop-color="#E5A4ED"/>
<stop offset="1" stop-color="#7A5BF5"/>
</linearGradient>
<linearGradient id="paint5_linear" x1="-9.35155" y1="341.398" x2="47.0101" y2="341.398" gradientUnits="userSpaceOnUse">
<stop stop-color="#93FD93"/>
<stop offset="0.51" stop-color="#21C2C1"/>
<stop offset="1" stop-color="#84F599"/>
</linearGradient>
<linearGradient id="paint6_linear" x1="11.7667" y1="323.598" x2="43.7913" y2="362.861" gradientUnits="userSpaceOnUse">
<stop stop-color="#93FD93"/>
<stop offset="0.51" stop-color="#21C2C1"/>
<stop offset="1" stop-color="#84F599"/>
</linearGradient>
<linearGradient id="paint7_linear" x1="48.6425" y1="367.996" x2="92.6699" y2="333.93" gradientUnits="userSpaceOnUse">
<stop stop-color="#93FD93"/>
<stop offset="0.51" stop-color="#21C2C1"/>
<stop offset="1" stop-color="#84F599"/>
</linearGradient>
<linearGradient id="paint8_linear" x1="59.7107" y1="350.695" x2="21.8954" y2="302.823" gradientUnits="userSpaceOnUse">
<stop stop-color="#93FD93"/>
<stop offset="0.51" stop-color="#21C2C1"/>
<stop offset="1" stop-color="#84F599"/>
</linearGradient>
<linearGradient id="paint9_linear" x1="22.3745" y1="321.03" x2="48.9808" y2="321.03" gradientUnits="userSpaceOnUse">
<stop stop-color="#93FD93"/>
<stop offset="0.51" stop-color="#21C2C1"/>
<stop offset="1" stop-color="#84F599"/>
</linearGradient>
<linearGradient id="paint10_linear" x1="46.7002" y1="364.499" x2="75.5216" y2="322.817" gradientUnits="userSpaceOnUse">
<stop stop-color="#93FD93"/>
<stop offset="0.51" stop-color="#21C2C1"/>
<stop offset="1" stop-color="#84F599"/>
</linearGradient>
<linearGradient id="paint11_linear" x1="30.0846" y1="375.271" x2="71.149" y2="375.271" gradientUnits="userSpaceOnUse">
<stop stop-color="#E5A4ED"/>
<stop offset="1" stop-color="#7A5BF5"/>
</linearGradient>
<linearGradient id="paint12_linear" x1="349.312" y1="285.073" x2="457.901" y2="285.786" gradientUnits="userSpaceOnUse">
<stop stop-color="#4B45BD"/>
<stop offset="1" stop-color="#58CAEA"/>
</linearGradient>
<linearGradient id="paint13_linear" x1="384.09" y1="132.04" x2="464.285" y2="132.04" gradientUnits="userSpaceOnUse">
<stop stop-color="#F87B58"/>
<stop offset="0.5" stop-color="#F8C548"/>
<stop offset="1" stop-color="#F89C51"/>
</linearGradient>
<linearGradient id="paint14_linear" x1="365.019" y1="157.031" x2="468.596" y2="157.031" gradientUnits="userSpaceOnUse">
<stop stop-color="#E5A4ED"/>
<stop offset="1" stop-color="#7A5BF5"/>
</linearGradient>
<linearGradient id="paint15_linear" x1="375.422" y1="109.535" x2="442.412" y2="109.535" gradientUnits="userSpaceOnUse">
<stop stop-color="#4B45BD"/>
<stop offset="1" stop-color="#58CAEA"/>
</linearGradient>
<linearGradient id="paint16_linear" x1="125.365" y1="290.17" x2="242.004" y2="290.17" gradientUnits="userSpaceOnUse">
<stop stop-color="#F87B58"/>
<stop offset="0.5" stop-color="#F8C548"/>
<stop offset="1" stop-color="#F89C51"/>
</linearGradient>
<linearGradient id="paint17_linear" x1="150.209" y1="305.451" x2="192.2" y2="305.451" gradientUnits="userSpaceOnUse">
<stop stop-color="#4B45BD"/>
<stop offset="1" stop-color="#58CAEA"/>
</linearGradient>
<linearGradient id="paint18_linear" x1="149.669" y1="257.716" x2="201.498" y2="257.716" gradientUnits="userSpaceOnUse">
<stop stop-color="#E5A4ED"/>
<stop offset="1" stop-color="#7A5BF5"/>
</linearGradient>
<linearGradient id="paint19_linear" x1="154.128" y1="201.806" x2="182.962" y2="201.806" gradientUnits="userSpaceOnUse">
<stop stop-color="#4B45BD"/>
<stop offset="1" stop-color="#58CAEA"/>
</linearGradient>
<linearGradient id="paint20_linear" x1="283.971" y1="228.902" x2="293.265" y2="228.902" gradientUnits="userSpaceOnUse">
<stop stop-color="#58CAEA"/>
<stop offset="1" stop-color="#4C4CBF"/>
</linearGradient>
<linearGradient id="paint21_linear" x1="310.37" y1="232.077" x2="315.457" y2="231.96" gradientUnits="userSpaceOnUse">
<stop stop-color="#58CAEA"/>
<stop offset="1" stop-color="#4C4CBF"/>
</linearGradient>
<linearGradient id="paint22_linear" x1="288.865" y1="219.044" x2="322.609" y2="219.044" gradientUnits="userSpaceOnUse">
<stop stop-color="#4C4FC0"/>
<stop offset="1" stop-color="#58CAEA"/>
</linearGradient>
<linearGradient id="paint23_linear" x1="297.734" y1="215.042" x2="300.477" y2="215.042" gradientUnits="userSpaceOnUse">
<stop stop-color="#4D54C2"/>
<stop offset="1" stop-color="#4C4CBF"/>
</linearGradient>
<linearGradient id="paint24_linear" x1="313.154" y1="215.08" x2="315.525" y2="215.08" gradientUnits="userSpaceOnUse">
<stop stop-color="#4D54C2"/>
<stop offset="1" stop-color="#4C4CBF"/>
</linearGradient>
<clipPath id="clip0">
<rect width="600" height="414.75" fill="white"/>
</clipPath>
</defs>
</svg>
