<svg width="28" height="28" viewBox="0 0 28 28" fill="none" xmlns="http://www.w3.org/2000/svg">
<g clip-path="url(#clip0)">
<path d="M27.993 28V27.9988H28V17.7298C28 12.7062 26.9185 8.83634 21.0455 8.83634C18.2222 8.83634 16.3275 10.3857 15.554 11.8545H15.4723V9.30534H9.90381V27.9988H15.7022V18.7425C15.7022 16.3053 16.1642 13.9487 19.1823 13.9487C22.1562 13.9487 22.2005 16.73 22.2005 18.8988V28H27.993Z" fill="#3F84E5"/>
<path d="M0.461975 9.3065H6.26731V28H0.461975V9.3065Z" fill="#3F84E5"/>
<path d="M3.36233 0C1.50617 0 0 1.50617 0 3.36233C0 5.2185 1.50617 6.75617 3.36233 6.75617C5.2185 6.75617 6.72467 5.2185 6.72467 3.36233C6.7235 1.50617 5.21733 0 3.36233 0V0Z" fill="#3F84E5"/>
</g>
<defs>
<clipPath id="clip0">
<rect width="28" height="28" fill="white"/>
</clipPath>
</defs>
</svg>
