<svg width="25" height="25" viewBox="0 0 25 25" fill="none" xmlns="http://www.w3.org/2000/svg">
<g clip-path="url(#clip0)">
<path d="M24.0416 22.5307L18.3295 16.5899C19.7982 14.844 20.6029 12.6473 20.6029 10.3605C20.6029 5.01748 16.2559 0.670471 10.9129 0.670471C5.56991 0.670471 1.2229 5.01748 1.2229 10.3605C1.2229 15.7034 5.56991 20.0505 10.9129 20.0505C12.9187 20.0505 14.8302 19.4455 16.4644 18.297L22.2198 24.2829C22.4604 24.5327 22.784 24.6705 23.1307 24.6705C23.4589 24.6705 23.7702 24.5453 24.0066 24.3178C24.5088 23.8346 24.5248 23.0333 24.0416 22.5307ZM10.9129 3.19829C14.8622 3.19829 18.0751 6.41116 18.0751 10.3605C18.0751 14.3098 14.8622 17.5226 10.9129 17.5226C6.96359 17.5226 3.75072 14.3098 3.75072 10.3605C3.75072 6.41116 6.96359 3.19829 10.9129 3.19829Z" fill="white"/>
</g>
<defs>
<clipPath id="clip0">
<rect width="24" height="24" fill="white" transform="translate(0.80835 0.670471)"/>
</clipPath>
</defs>
</svg>
